<?xml version="1.0" encoding="UTF-8"?>
<!DOCTYPE svg PUBLIC "-//W3C//DTD SVG 1.1//EN" "http://www.w3.org/Graphics/SVG/1.1/DTD/svg11.dtd">
<!-- Creator: CorelDRAW 2019 (64-Bit) -->
<svg xmlns="http://www.w3.org/2000/svg" xml:space="preserve" width="2.8616mm" height="2.8624mm" version="1.1" style="shape-rendering:geometricPrecision; text-rendering:geometricPrecision; image-rendering:optimizeQuality; fill-rule:evenodd; clip-rule:evenodd"
viewBox="0 0 6.81 6.81"
 xmlns:xlink="http://www.w3.org/1999/xlink">
 <defs>
  <style type="text/css">
   <![CDATA[
    .str0 {stroke:#508ECB;stroke-width:0.18;stroke-miterlimit:22.9256}
    .fil0 {fill:none;fill-rule:nonzero}
    .fil1 {fill:#FEFEFE}
    .fil5 {fill:#093D75}
    .fil2 {fill:#4A90E2}
    .fil4 {fill:#FEFEFE;fill-rule:nonzero}
    .fil3 {fill:#4A90E2;fill-rule:nonzero}
   ]]>
  </style>
   <clipPath id="id0">
    <path d="M3.4 0.18c1.78,0 3.22,1.44 3.22,3.22 0,1.78 -1.44,3.22 -3.22,3.22 -1.78,0 -3.22,-1.44 -3.22,-3.22 0,-1.78 1.44,-3.22 3.22,-3.22z"/>
   </clipPath>
 </defs>
 <g id="Layer_x0020_1">
  <metadata id="CorelCorpID_0Corel-Layer"/>
  <g>
   <path class="fil0 str0" d="M3.4 0.18c1.78,0 3.22,1.44 3.22,3.22 0,1.78 -1.44,3.22 -3.22,3.22 -1.78,0 -3.22,-1.44 -3.22,-3.22 0,-1.78 1.44,-3.22 3.22,-3.22z"/>
  </g>
  <path id="1" class="fil1" d="M3.4 0.18c1.78,0 3.22,1.44 3.22,3.22 0,1.78 -1.44,3.22 -3.22,3.22 -1.78,0 -3.22,-1.44 -3.22,-3.22 0,-1.78 1.44,-3.22 3.22,-3.22z"/>
  <g style="clip-path:url(#id0)">
   <g>
    <g id="_2753528880624">
     <rect class="fil2" x="5.86" y="2.94" width="0.92" height="0.92" rx="0.01" ry="0.07"/>
     <rect class="fil2" x="2.94" y="5.86" width="0.92" height="0.92" rx="0.01" ry="0.07"/>
     <rect class="fil2" x="0.03" y="2.94" width="0.92" height="0.92" rx="0.01" ry="0.07"/>
     <rect class="fil2" x="2.94" y="0.03" width="0.92" height="0.92" rx="0.01" ry="0.07"/>
     <g>
      <path class="fil3" d="M4.57 3.4l-0.15 0 0 0 -0 -0.05 -0 -0.05 -0.01 -0.05 -0.01 -0.05 -0.01 -0.05 -0.01 -0.05 -0.02 -0.05 -0.02 -0.05 -0.02 -0.05 -0.02 -0.04 -0.02 -0.04 -0.03 -0.04 -0.03 -0.04 -0.03 -0.04 -0.03 -0.04 -0.03 -0.04 -0.04 -0.03 -0.04 -0.03 -0.04 -0.03 -0.04 -0.03 -0.04 -0.03 -0.04 -0.02 -0.04 -0.02 -0.05 -0.02 -0.05 -0.02 -0.05 -0.02 -0.05 -0.01 -0.05 -0.01 -0.05 -0.01 -0.05 -0.01 -0.05 -0 -0.05 -0 0 -0.15 0.06 0 0.06 0 0.06 0.01 0.06 0.01 0.06 0.01 0.06 0.02 0.05 0.02 0.05 0.02 0.05 0.02 0.05 0.03 0.05 0.03 0.05 0.03 0.05 0.03 0.04 0.03 0.04 0.04 0.04 0.04 0.04 0.04 0.04 0.04 0.03 0.04 0.03 0.05 0.03 0.05 0.03 0.05 0.03 0.05 0.02 0.05 0.02 0.05 0.02 0.05 0.02 0.06 0.01 0.06 0.01 0.06 0.01 0.06 0 0.06 0 0.06 0 0zm-1.17 1.17l0 -0.15 0 0 0.05 -0 0.05 -0 0.05 -0.01 0.05 -0.01 0.05 -0.01 0.05 -0.01 0.05 -0.02 0.05 -0.02 0.05 -0.02 0.04 -0.02 0.04 -0.02 0.04 -0.03 0.04 -0.03 0.04 -0.03 0.04 -0.03 0.04 -0.03 0.03 -0.04 0.03 -0.04 0.03 -0.04 0.03 -0.04 0.03 -0.04 0.02 -0.04 0.02 -0.04 0.02 -0.05 0.02 -0.05 0.02 -0.05 0.01 -0.05 0.01 -0.05 0.01 -0.05 0.01 -0.05 0 -0.05 0 -0.05 0.15 0 -0 0.06 -0 0.06 -0.01 0.06 -0.01 0.06 -0.01 0.06 -0.02 0.06 -0.02 0.05 -0.02 0.05 -0.02 0.05 -0.03 0.05 -0.03 0.05 -0.03 0.05 -0.03 0.05 -0.03 0.04 -0.04 0.04 -0.04 0.04 -0.04 0.04 -0.04 0.04 -0.04 0.03 -0.05 0.03 -0.05 0.03 -0.05 0.03 -0.05 0.03 -0.05 0.02 -0.05 0.02 -0.05 0.02 -0.06 0.02 -0.06 0.01 -0.06 0.01 -0.06 0.01 -0.06 0 -0.06 0 0 0zm-1.17 -1.17l0.15 0 0 0 0 0.05 0 0.05 0.01 0.05 0.01 0.05 0.01 0.05 0.01 0.05 0.02 0.05 0.02 0.05 0.02 0.05 0.02 0.04 0.02 0.04 0.03 0.04 0.03 0.04 0.03 0.04 0.03 0.04 0.03 0.04 0.04 0.03 0.04 0.03 0.04 0.03 0.04 0.03 0.04 0.03 0.04 0.02 0.04 0.02 0.05 0.02 0.05 0.02 0.05 0.02 0.05 0.01 0.05 0.01 0.05 0.01 0.05 0.01 0.05 0 0.05 0 0 0.15 -0.06 -0 -0.06 -0 -0.06 -0.01 -0.06 -0.01 -0.06 -0.01 -0.06 -0.02 -0.05 -0.02 -0.05 -0.02 -0.05 -0.02 -0.05 -0.03 -0.05 -0.03 -0.05 -0.03 -0.05 -0.03 -0.04 -0.03 -0.04 -0.04 -0.04 -0.04 -0.04 -0.04 -0.04 -0.04 -0.03 -0.04 -0.03 -0.05 -0.03 -0.05 -0.03 -0.05 -0.03 -0.05 -0.02 -0.05 -0.02 -0.05 -0.02 -0.05 -0.02 -0.06 -0.01 -0.06 -0.01 -0.06 -0.01 -0.06 -0 -0.06 -0 -0.06 0 0zm1.17 -1.17l0 0.15 0 0 -0.05 0 -0.05 0 -0.05 0.01 -0.05 0.01 -0.05 0.01 -0.05 0.01 -0.05 0.02 -0.05 0.02 -0.05 0.02 -0.04 0.02 -0.04 0.02 -0.04 0.03 -0.04 0.03 -0.04 0.03 -0.04 0.03 -0.04 0.03 -0.03 0.04 -0.03 0.04 -0.03 0.04 -0.03 0.04 -0.03 0.04 -0.02 0.04 -0.02 0.04 -0.02 0.05 -0.02 0.05 -0.02 0.05 -0.01 0.05 -0.01 0.05 -0.01 0.05 -0.01 0.05 -0 0.05 -0 0.05 -0.15 0 0 -0.06 0 -0.06 0.01 -0.06 0.01 -0.06 0.01 -0.06 0.02 -0.06 0.02 -0.05 0.02 -0.05 0.02 -0.05 0.03 -0.05 0.03 -0.05 0.03 -0.05 0.03 -0.05 0.03 -0.04 0.04 -0.04 0.04 -0.04 0.04 -0.04 0.04 -0.04 0.04 -0.03 0.05 -0.03 0.05 -0.03 0.05 -0.03 0.05 -0.03 0.05 -0.02 0.05 -0.02 0.05 -0.02 0.06 -0.02 0.06 -0.01 0.06 -0.01 0.06 -0.01 0.06 -0 0.06 -0 0 0z"/>
     </g>
     <g>
      <path class="fil3" d="M4.95 3.4l-0.15 0 0 0 -0 -0.07 -0.01 -0.07 -0.01 -0.07 -0.01 -0.07 -0.02 -0.07 -0.02 -0.07 -0.02 -0.07 -0.02 -0.06 -0.03 -0.06 -0.03 -0.06 -0.03 -0.06 -0.04 -0.06 -0.04 -0.05 -0.04 -0.05 -0.04 -0.05 -0.05 -0.05 -0.05 -0.05 -0.05 -0.04 -0.05 -0.04 -0.06 -0.04 -0.06 -0.04 -0.06 -0.03 -0.06 -0.03 -0.06 -0.03 -0.06 -0.03 -0.07 -0.02 -0.07 -0.02 -0.07 -0.02 -0.07 -0.01 -0.07 -0.01 -0.07 -0.01 -0.07 -0 0 -0.15 0.08 0 0.08 0.01 0.08 0.01 0.08 0.01 0.07 0.02 0.07 0.02 0.07 0.02 0.07 0.03 0.07 0.03 0.07 0.03 0.06 0.04 0.06 0.04 0.06 0.04 0.06 0.05 0.06 0.05 0.05 0.05 0.05 0.05 0.05 0.06 0.05 0.06 0.04 0.06 0.04 0.06 0.04 0.06 0.03 0.07 0.03 0.07 0.03 0.07 0.02 0.07 0.02 0.07 0.02 0.07 0.01 0.08 0.01 0.08 0.01 0.08 0 0.08 0 0zm-1.55 1.55l0 -0.15 0 0 0.07 -0 0.07 -0.01 0.07 -0.01 0.07 -0.01 0.07 -0.02 0.07 -0.02 0.07 -0.02 0.06 -0.02 0.06 -0.03 0.06 -0.03 0.06 -0.03 0.06 -0.04 0.06 -0.04 0.05 -0.04 0.05 -0.04 0.05 -0.05 0.05 -0.05 0.04 -0.05 0.04 -0.05 0.04 -0.05 0.04 -0.06 0.03 -0.06 0.03 -0.06 0.03 -0.06 0.02 -0.06 0.02 -0.07 0.02 -0.07 0.02 -0.07 0.01 -0.07 0.01 -0.07 0.01 -0.07 0 -0.07 0.15 0 -0 0.08 -0.01 0.08 -0.01 0.08 -0.01 0.08 -0.02 0.07 -0.02 0.07 -0.02 0.07 -0.03 0.07 -0.03 0.07 -0.03 0.07 -0.04 0.06 -0.04 0.06 -0.04 0.06 -0.05 0.06 -0.05 0.06 -0.05 0.05 -0.05 0.05 -0.06 0.05 -0.06 0.05 -0.06 0.04 -0.06 0.04 -0.06 0.04 -0.07 0.03 -0.07 0.03 -0.07 0.03 -0.07 0.02 -0.07 0.02 -0.07 0.02 -0.08 0.01 -0.08 0.01 -0.08 0.01 -0.08 0 0 0zm-1.55 -1.55l0.15 0 0 0 0 0.07 0.01 0.07 0.01 0.07 0.01 0.07 0.02 0.07 0.02 0.07 0.02 0.07 0.02 0.06 0.03 0.06 0.03 0.06 0.03 0.06 0.04 0.06 0.04 0.05 0.04 0.05 0.04 0.05 0.05 0.05 0.05 0.05 0.05 0.04 0.05 0.04 0.06 0.04 0.06 0.04 0.06 0.03 0.06 0.03 0.06 0.03 0.06 0.02 0.07 0.02 0.07 0.02 0.07 0.02 0.07 0.01 0.07 0.01 0.07 0.01 0.07 0 0 0.15 -0.08 -0 -0.08 -0.01 -0.08 -0.01 -0.08 -0.01 -0.07 -0.02 -0.07 -0.02 -0.07 -0.02 -0.07 -0.03 -0.07 -0.03 -0.07 -0.03 -0.06 -0.04 -0.06 -0.04 -0.06 -0.04 -0.06 -0.05 -0.06 -0.05 -0.05 -0.05 -0.05 -0.05 -0.05 -0.06 -0.05 -0.06 -0.04 -0.06 -0.04 -0.06 -0.04 -0.06 -0.03 -0.07 -0.03 -0.07 -0.03 -0.07 -0.02 -0.07 -0.02 -0.07 -0.02 -0.07 -0.01 -0.08 -0.01 -0.08 -0.01 -0.08 -0 -0.08 0 0zm1.55 -1.55l0 0.15 0 0 -0.07 0 -0.07 0.01 -0.07 0.01 -0.07 0.01 -0.07 0.02 -0.07 0.02 -0.07 0.02 -0.06 0.03 -0.06 0.03 -0.06 0.03 -0.06 0.03 -0.06 0.04 -0.06 0.04 -0.05 0.04 -0.05 0.04 -0.05 0.05 -0.05 0.05 -0.04 0.05 -0.04 0.05 -0.04 0.05 -0.04 0.06 -0.03 0.06 -0.03 0.06 -0.03 0.06 -0.02 0.06 -0.02 0.07 -0.02 0.07 -0.02 0.07 -0.01 0.07 -0.01 0.07 -0.01 0.07 -0 0.07 -0.15 0 0 -0.08 0.01 -0.08 0.01 -0.08 0.01 -0.08 0.02 -0.07 0.02 -0.07 0.02 -0.07 0.03 -0.07 0.03 -0.07 0.03 -0.07 0.04 -0.06 0.04 -0.06 0.04 -0.06 0.05 -0.06 0.05 -0.06 0.05 -0.05 0.05 -0.05 0.06 -0.05 0.06 -0.05 0.06 -0.04 0.06 -0.04 0.06 -0.04 0.07 -0.03 0.07 -0.03 0.07 -0.03 0.07 -0.02 0.07 -0.02 0.07 -0.02 0.08 -0.01 0.08 -0.01 0.08 -0.01 0.08 -0 0 0z"/>
     </g>
     <g>
      <path class="fil3" d="M5.33 3.4l-0.15 0 0 0 -0 -0.09 -0.01 -0.09 -0.01 -0.09 -0.02 -0.09 -0.02 -0.09 -0.02 -0.08 -0.03 -0.08 -0.03 -0.08 -0.04 -0.08 -0.04 -0.08 -0.04 -0.07 -0.05 -0.07 -0.05 -0.07 -0.05 -0.07 -0.06 -0.06 -0.06 -0.06 -0.06 -0.06 -0.06 -0.06 -0.07 -0.05 -0.07 -0.05 -0.07 -0.05 -0.07 -0.04 -0.08 -0.04 -0.08 -0.04 -0.08 -0.03 -0.08 -0.03 -0.08 -0.02 -0.09 -0.02 -0.09 -0.02 -0.09 -0.01 -0.09 -0.01 -0.09 -0 0 -0.15 0.1 0 0.1 0.01 0.1 0.01 0.1 0.02 0.09 0.02 0.09 0.03 0.09 0.03 0.09 0.03 0.09 0.04 0.08 0.04 0.08 0.05 0.08 0.05 0.08 0.05 0.07 0.06 0.07 0.06 0.07 0.06 0.06 0.07 0.06 0.07 0.06 0.07 0.05 0.08 0.05 0.08 0.05 0.08 0.04 0.08 0.04 0.09 0.03 0.09 0.03 0.09 0.03 0.09 0.02 0.09 0.02 0.1 0.01 0.1 0.01 0.1 0 0.1 0 0zm-1.93 1.93l0 -0.15 0 0 0.09 -0 0.09 -0.01 0.09 -0.01 0.09 -0.02 0.09 -0.02 0.08 -0.02 0.08 -0.03 0.08 -0.03 0.08 -0.04 0.08 -0.04 0.07 -0.04 0.07 -0.05 0.07 -0.05 0.07 -0.05 0.06 -0.06 0.06 -0.06 0.06 -0.06 0.06 -0.06 0.05 -0.07 0.05 -0.07 0.05 -0.07 0.04 -0.07 0.04 -0.08 0.04 -0.08 0.03 -0.08 0.03 -0.08 0.02 -0.08 0.02 -0.09 0.02 -0.09 0.01 -0.09 0.01 -0.09 0 -0.09 0.15 0 -0 0.1 -0.01 0.1 -0.01 0.1 -0.02 0.1 -0.02 0.09 -0.03 0.09 -0.03 0.09 -0.03 0.09 -0.04 0.09 -0.04 0.08 -0.05 0.08 -0.05 0.08 -0.05 0.08 -0.06 0.07 -0.06 0.07 -0.06 0.07 -0.07 0.06 -0.07 0.06 -0.07 0.06 -0.08 0.05 -0.08 0.05 -0.08 0.05 -0.08 0.04 -0.09 0.04 -0.09 0.03 -0.09 0.03 -0.09 0.03 -0.09 0.02 -0.1 0.02 -0.1 0.01 -0.1 0.01 -0.1 0 0 0zm-1.93 -1.93l0.15 0 0 0 0 0.09 0.01 0.09 0.01 0.09 0.02 0.09 0.02 0.09 0.02 0.08 0.03 0.08 0.03 0.08 0.04 0.08 0.04 0.08 0.04 0.07 0.05 0.07 0.05 0.07 0.05 0.07 0.06 0.06 0.06 0.06 0.06 0.06 0.06 0.06 0.07 0.05 0.07 0.05 0.07 0.05 0.07 0.04 0.08 0.04 0.08 0.04 0.08 0.03 0.08 0.03 0.08 0.02 0.09 0.02 0.09 0.02 0.09 0.01 0.09 0.01 0.09 0 0 0.15 -0.1 -0 -0.1 -0.01 -0.1 -0.01 -0.09 -0.02 -0.09 -0.02 -0.09 -0.03 -0.09 -0.03 -0.09 -0.03 -0.09 -0.04 -0.08 -0.04 -0.08 -0.05 -0.08 -0.05 -0.08 -0.05 -0.07 -0.06 -0.07 -0.06 -0.07 -0.06 -0.06 -0.07 -0.06 -0.07 -0.06 -0.07 -0.05 -0.08 -0.05 -0.08 -0.05 -0.08 -0.04 -0.08 -0.04 -0.09 -0.03 -0.09 -0.03 -0.09 -0.03 -0.09 -0.02 -0.09 -0.02 -0.1 -0.01 -0.1 -0.01 -0.1 -0 -0.1 0 0zm1.93 -1.93l0 0.15 0 0 -0.09 0 -0.09 0.01 -0.09 0.01 -0.09 0.02 -0.09 0.02 -0.08 0.02 -0.08 0.03 -0.08 0.03 -0.08 0.04 -0.08 0.04 -0.07 0.04 -0.07 0.05 -0.07 0.05 -0.07 0.05 -0.06 0.06 -0.06 0.06 -0.06 0.06 -0.06 0.06 -0.05 0.07 -0.05 0.07 -0.05 0.07 -0.04 0.07 -0.04 0.08 -0.04 0.08 -0.03 0.08 -0.03 0.08 -0.02 0.08 -0.02 0.09 -0.02 0.09 -0.01 0.09 -0.01 0.09 -0 0.09 -0.15 0 0 -0.1 0.01 -0.1 0.01 -0.1 0.02 -0.1 0.02 -0.09 0.03 -0.09 0.03 -0.09 0.03 -0.09 0.04 -0.09 0.04 -0.08 0.05 -0.08 0.05 -0.08 0.05 -0.08 0.06 -0.07 0.06 -0.07 0.06 -0.07 0.07 -0.06 0.07 -0.06 0.07 -0.06 0.08 -0.05 0.08 -0.05 0.08 -0.05 0.08 -0.04 0.09 -0.04 0.09 -0.03 0.09 -0.03 0.09 -0.03 0.09 -0.02 0.09 -0.02 0.1 -0.01 0.1 -0.01 0.1 -0 0 0z"/>
     </g>
     <g>
      <path class="fil4" d="M3.79 1.42l-0.78 0 0 -0.29 0.78 0 0 0 0 0.29zm0.22 -0.07l-0.29 0 0 0 0 0.01 0 0.01 -0 -0 0 0.01 0 0.01 0 0 0 0 0 0 0 0.01 0 0 0 0 -0 -0 0 0.01 0 0.01 0 0 0 0 0 0 0 0 0.01 0 0.01 0 -0 -0 0 0 0 0 0.01 0 0 0 0 0 0 0 0.01 0 0.01 0 -0 -0 0.01 0 0.01 0 0 -0.29 0.01 0 0.01 0 0 0 0.01 0 0.01 0 0.01 0 0.01 0 0.01 0 0.01 0.01 0.01 0.01 0.01 0 0.01 0 0.01 0.01 0.01 0.01 0.01 0 0.01 0.01 0.01 0.01 0 0.01 0.01 0.01 0.01 0.01 0 0.01 0 0.01 0.01 0.01 0.01 0.01 0 0.01 0 0.01 0 0.01 0 0.01 0 0.01 0 0 0 0.01 0 0.01 0 0zm-0.29 1.59l0 -1.59 0.29 0 0 1.59 -0.15 0.15 -0.15 -0.15zm0.29 0c0,0.08 -0.07,0.15 -0.15,0.15 -0.08,0 -0.15,-0.07 -0.15,-0.15l0.29 0zm1.45 0.15l-1.59 0 0 -0.29 1.59 0 0 0 0 0.29zm0.22 -0.07l-0.29 0 0 0 0 0.01 0 0.01 -0 -0 0 0.01 0 0.01 0 0 0 0 0 0 0 0.01 0 0 0 0 -0 -0 0 0.01 0 0.01 0 0 0 0 0 0 0 0 0.01 0 0.01 0 -0 -0 0 0 0 0 0.01 0 0 0 0 0 0 0 0.01 0 0.01 0 -0 -0 0.01 0 0.01 0 0 -0.29 0.01 0 0.01 0 0 0 0.01 0 0.01 0 0.01 0 0.01 0 0.01 0 0.01 0.01 0.01 0.01 0.01 0 0.01 0 0.01 0.01 0.01 0.01 0.01 0 0.01 0.01 0.01 0.01 0 0.01 0.01 0.01 0.01 0.01 0 0.01 0 0.01 0.01 0.01 0.01 0.01 0 0.01 0 0.01 0 0.01 0 0.01 0 0.01 0 0 0 0.01 0 0.01 0 0zm-0.29 0.78l0 -0.78 0.29 0 0 0.78 0 0 -0.29 0zm0.07 0.22l0 -0.29 0 0 -0.01 0 -0.01 0 0 -0 -0.01 0 -0.01 0 0 -0 -0.01 0 -0.01 0 -0 0 -0 0 -0 0 -0 0 -0.01 0.01 -0 0 0 -0 -0.01 0 -0 0 0 0 -0 0.01 -0 0.01 0 -0 0 0 -0 0 -0 0.01 -0 0 -0 0 -0 0 -0 0.01 -0 0.01 0 -0 -0 0.01 -0 0.01 0.29 0 -0 0.01 -0 0.01 -0 0 -0 0.01 -0 0.01 -0 0.01 -0 0.01 -0 0.01 -0.01 0.01 -0.01 0.01 -0 0.01 -0 0.01 -0.01 0.01 -0.01 0.01 -0 0.01 -0.01 0.01 -0.01 0.01 -0 0 -0.01 0.01 -0.01 0.01 -0.01 0.01 -0.01 0 -0.01 0 -0.01 0 -0.01 0.01 -0.01 0 -0 0 -0.01 0 -0.01 0 -0 0 -0.01 0 -0.01 0 0 0zm-1.59 -0.29l1.59 0 0 0.29 -1.59 0 -0.15 -0.15 0.15 -0.15zm0 0.29c-0.08,0 -0.15,-0.07 -0.15,-0.15 0,-0.08 0.07,-0.15 0.15,-0.15l0 0.29zm-0.15 1.45l0 -1.59 0.29 0 0 1.59 0 0 -0.29 0zm0.07 0.22l0 -0.29 0 0 -0.01 0 -0.01 0 0 -0 -0.01 0 -0.01 0 -0 0 -0 0 -0 0 -0.01 0 -0 0 -0 0 0 -0 -0.01 0 -0.01 0 -0 0 -0 0 -0 0 -0 0 -0 0.01 -0 0 0 -0 -0 0 -0 0 -0 0.01 -0 0 -0 0 -0 0 -0 0.01 -0 0.01 0 -0 -0 0.01 -0 0.01 0.29 0 -0 0.01 -0 0.01 -0 0 -0 0.01 -0 0.01 -0 0.01 -0 0.01 -0 0.01 -0 0.01 -0.01 0.01 -0.01 0.01 -0 0.01 -0 0.01 -0.01 0.01 -0.01 0.01 -0.01 0.01 -0.01 0.01 -0.01 0 -0.01 0.01 -0.01 0.01 -0.01 0 -0.01 0 -0.01 0.01 -0.01 0.01 -0.01 0 -0.01 0 -0.01 0 -0.01 0 -0.01 0 -0 0 -0.01 0 -0.01 0 0 0zm-0.78 -0.29l0.78 0 0 0.29 -0.78 0 0 0 0 -0.29zm-0.22 0.07l0.29 0 0 0 -0 -0.01 -0 -0.01 0 0 -0 -0.01 -0 -0.01 -0 -0 -0 -0 -0 -0 -0 -0.01 -0 -0 -0 -0 0 0 -0 -0 -0 -0.01 -0 -0 -0 -0 -0 -0 -0 -0 -0.01 -0 -0 -0 0 0 -0 -0 -0 -0 -0.01 -0 -0 -0 -0 -0 -0 -0 -0.01 -0 -0.01 -0 0 0 -0.01 -0 -0.01 -0 0 0.29 -0.01 -0 -0.01 -0 -0 -0 -0.01 -0 -0.01 -0 -0.01 -0 -0.01 -0 -0.01 -0 -0.01 -0 -0.01 -0.01 -0.01 -0.01 -0.01 -0 -0.01 -0 -0.01 -0.01 -0.01 -0.01 -0.01 -0.01 -0.01 -0.01 -0.01 -0.01 -0.01 -0.01 -0 -0.01 -0 -0.01 -0.01 -0.01 -0.01 -0.01 -0 -0.01 -0 -0.01 -0 -0.01 -0 -0.01 -0 -0.01 -0 -0.01 -0 -0 -0 -0.01 -0 -0.01 0 0zm0.29 -1.59l0 1.59 -0.29 0 0 -1.59 0.15 -0.15 0.15 0.15zm-0.29 0c0,-0.08 0.07,-0.15 0.15,-0.15 0.08,0 0.15,0.07 0.15,0.15l-0.29 0zm-1.45 -0.15l1.59 0 0 0.29 -1.59 0 0 0 0 -0.29zm-0.22 0.07l0.29 0 0 0 -0 -0.01 -0 -0.01 0 0 -0 -0.01 -0 -0.01 -0 -0 -0 -0 -0 -0 -0 -0.01 -0 -0 0 -0 0 0 -0 -0.01 -0 -0.01 0 -0 -0 -0 -0.01 -0 0 0 -0 -0 -0.01 -0.01 -0 -0 -0 -0 -0 -0 -0 -0 -0.01 -0 -0.01 -0 0 0 -0.01 -0 -0.01 -0 0 0 -0.01 -0 -0.01 -0 0 0.29 -0.01 -0 -0.01 -0 -0 -0 -0.01 -0 -0.01 -0 -0 -0 -0.01 -0 -0.01 -0.01 -0.01 -0 -0.01 -0 -0.01 -0 -0.01 -0.01 -0.01 -0.01 -0.01 -0.01 -0 -0 -0.01 -0.01 -0.01 -0.01 -0 -0.01 -0.01 -0.01 -0.01 -0.01 -0 -0.01 -0 -0.01 -0.01 -0.01 -0.01 -0.01 -0 -0.01 -0 -0.01 -0 -0.01 -0 -0.01 -0 -0.01 -0 -0 -0 -0.01 -0 -0.01 0 0zm0.29 -0.78l0 0.78 -0.29 0 0 -0.78 0 0 0.29 0zm-0.07 -0.22l0 0.29 0 0 0.01 -0 0.01 -0 -0 0 0.01 -0 0.01 -0 0 -0 0 -0 0 -0 0.01 -0 0 -0 0 -0 -0 0 0.01 -0 0.01 -0 0 -0 0 -0 0 -0 0 -0 0 -0.01 0 -0.01 -0 0 0 -0 0 -0 0 -0.01 0 -0 0 -0 0 -0 0 -0.01 0 -0.01 -0 0 0 -0.01 0 -0.01 -0.29 0 0 -0.01 0 -0.01 0 -0 0 -0.01 0 -0.01 0 -0.01 0 -0.01 0 -0.01 0.01 -0.01 0.01 -0.01 0 -0.01 0 -0.01 0.01 -0.01 0.01 -0.01 0 -0.01 0.01 -0.01 0.01 -0.01 0.01 -0 0.01 -0.01 0.01 -0.01 0.01 -0 0.01 -0 0.01 -0.01 0.01 -0.01 0.01 -0 0.01 -0 0.01 -0 0.01 -0 0.01 -0 0 -0 0.01 -0 0.01 -0 0 0zm1.59 0.29l-1.59 0 0 -0.29 1.59 0 0.15 0.15 -0.15 0.15zm0 -0.29c0.08,0 0.15,0.07 0.15,0.15 0,0.08 -0.07,0.15 -0.15,0.15l0 -0.29zm0.15 -1.45l0 1.59 -0.29 0 0 -1.59 0 0 0.29 0zm-0.07 -0.22l0 0.29 0 0 0.01 -0 0.01 -0 -0 0 0.01 -0 0.01 -0 0 -0 0 -0 0 -0 0.01 -0 0 -0 0 -0 -0 0 0 -0 0.01 -0 0 -0 0 -0 0 -0 0 -0 0 -0.01 0 -0.01 -0 0 0 -0 0 -0 0 -0.01 0 -0 0 -0 0 -0 0 -0.01 0 -0.01 -0 0 0 -0.01 0 -0.01 -0.29 0 0 -0.01 0 -0.01 0 -0 0 -0.01 0 -0.01 0 -0.01 0 -0.01 0 -0.01 0.01 -0.01 0.01 -0.01 0 -0.01 0 -0.01 0.01 -0.01 0.01 -0.01 0 -0.01 0.01 -0.01 0.01 -0.01 0.01 -0.01 0.01 -0.01 0.01 -0 0.01 -0 0.01 -0.01 0.01 -0.01 0.01 -0 0.01 -0 0.01 -0 0.01 -0 0.01 -0 0.01 -0 0 -0 0.01 -0 0.01 -0 0 0z"/>
      <path id="1" class="fil5" d="M3.02 1.27l0.78 0c0.04,0 0.07,0.03 0.07,0.07l0 1.59 1.59 0c0.04,0 0.07,0.03 0.07,0.07l0 0.78c0,0.04 -0.03,0.07 -0.07,0.07l-1.59 0 0 1.59c0,0.04 -0.03,0.07 -0.07,0.07l-0.78 0c-0.04,0 -0.07,-0.03 -0.07,-0.07l0 -1.59 -1.59 0c-0.04,0 -0.07,-0.03 -0.07,-0.07l0 -0.78c0,-0.04 0.03,-0.07 0.07,-0.07l1.59 0 0 -1.59c0,-0.04 0.03,-0.07 0.07,-0.07z"/>
     </g>
    </g>
   </g>
  </g>
 </g>
</svg>
