<?xml version="1.0" encoding="UTF-8"?>
<!DOCTYPE svg PUBLIC "-//W3C//DTD SVG 1.1//EN" "http://www.w3.org/Graphics/SVG/1.1/DTD/svg11.dtd">
<!-- Creator: CorelDRAW 2019 (64-Bit) -->
<svg xmlns="http://www.w3.org/2000/svg" xml:space="preserve" width="423.333mm" height="254mm" version="1.1" style="shape-rendering:geometricPrecision; text-rendering:geometricPrecision; image-rendering:optimizeQuality; fill-rule:evenodd; clip-rule:evenodd"
viewBox="0 0 42333.32 25400"
 xmlns:xlink="http://www.w3.org/1999/xlink">
 <defs>
  <style type="text/css">
   <![CDATA[
    .str3 {stroke:#FEFEFE;stroke-width:260.13;stroke-linecap:round;stroke-linejoin:round;stroke-miterlimit:22.9256}
    .str1 {stroke:#4A90E2;stroke-width:130.07;stroke-linecap:round;stroke-linejoin:round;stroke-miterlimit:22.9256}
    .str2 {stroke:#4A90E2;stroke-width:130.08;stroke-linecap:round;stroke-linejoin:round;stroke-miterlimit:22.9256}
    .str0 {stroke:#4A90E2;stroke-width:130.08;stroke-linecap:round;stroke-linejoin:round;stroke-miterlimit:22.9256}
    .fil2 {fill:none}
    .fil3 {fill:#093D75}
    .fil1 {fill:#4A90E2}
    .fil0 {fill:#093D75;fill-rule:nonzero}
   ]]>
  </style>
 </defs>
 <g id="Layer_x0020_1">
  <metadata id="CorelCorpID_0Corel-Layer"/>
  <g id="_2753382072496">
   <g>
    <path class="fil0" d="M14247.69 12803.79c-195.51,0 -372.29,-42.48 -530.34,-127.45 -158.05,-84.96 -282.3,-202.82 -372.75,-353.56 -90.45,-150.74 -135.67,-321.13 -135.67,-511.16 0,-190.02 45.22,-360.41 135.67,-511.15 90.45,-150.75 214.7,-268.6 372.75,-353.57 158.05,-84.96 335.74,-127.44 533.08,-127.44 166.28,0 316.56,29.23 450.86,87.7 134.3,58.47 247.13,142.52 338.49,252.16l-285.04 263.11c-129.73,-149.83 -290.53,-224.74 -482.38,-224.74 -118.77,0 -224.75,26.03 -317.93,78.11 -93.19,52.07 -165.82,124.71 -217.9,217.89 -52.07,93.19 -78.11,199.17 -78.11,317.93 0,118.77 26.04,224.75 78.11,317.94 52.08,93.18 124.71,165.81 217.9,217.89 93.18,52.07 199.16,78.11 317.93,78.11 191.85,0 352.65,-75.83 482.38,-227.49l285.04 263.12c-91.36,111.46 -204.65,196.42 -339.86,254.89 -135.21,58.47 -285.96,87.71 -452.23,87.71z"/>
    <polygon id="1" class="fil0" points="15338.53,10852.35 15782.53,10852.35 15782.53,12770.9 15338.53,12770.9 "/>
    <path id="2" class="fil0" d="M17067.96 10852.35c169.93,0 317.48,28.32 442.64,84.96 125.17,56.64 221.55,137.04 289.16,241.19 67.6,104.15 101.41,227.49 101.41,370.01 0,140.69 -33.81,263.57 -101.41,368.63 -67.61,105.07 -163.99,185.46 -289.16,241.19 -125.16,55.73 -272.71,83.6 -442.64,83.6l-386.45 0 0 528.97 -444 0 0 -1918.55 830.45 0zm-24.66 1027.79c133.38,0 234.79,-28.78 304.23,-86.33 69.43,-57.56 104.15,-139.33 104.15,-245.3 0,-107.81 -34.72,-190.49 -104.15,-248.04 -69.44,-57.56 -170.85,-86.34 -304.23,-86.34l-361.79 0 0 666.01 361.79 0z"/>
    <path id="3" class="fil0" d="M21058.55 12359.78l-890.76 0 -169.93 411.12 -454.97 0 855.13 -1918.55 438.53 0 857.86 1918.55 -465.93 0 -169.93 -411.12zm-139.78 -337.12l-304.23 -734.53 -304.23 734.53 608.46 0z"/>
    <polygon id="4" class="fil0" points="24361.21,10852.35 24361.21,12770.9 24087.13,12770.9 24087.13,11915.77 22985.33,11915.77 22985.33,12770.9 22711.25,12770.9 22711.25,10852.35 22985.33,10852.35 22985.33,11677.32 24087.13,11677.32 24087.13,10852.35 "/>
    <path id="5" class="fil0" d="M25802.86 12792.83c-193.68,0 -368.18,-42.49 -523.49,-127.45 -155.31,-84.96 -277.27,-202.36 -365.89,-352.19 -88.62,-149.83 -132.93,-317.02 -132.93,-501.57 0,-184.54 44.31,-351.73 132.93,-501.56 88.62,-149.83 210.58,-267.23 365.89,-352.19 155.31,-84.97 329.81,-127.45 523.49,-127.45 191.86,0 365.44,42.48 520.75,127.45 155.31,84.96 276.82,201.9 364.53,350.82 87.7,148.91 131.56,316.56 131.56,502.93 0,186.38 -43.86,354.02 -131.56,502.94 -87.71,148.91 -209.22,265.86 -364.53,350.82 -155.31,84.96 -328.89,127.45 -520.75,127.45zm0 -243.93c140.7,0 267.23,-31.98 379.6,-95.93 112.37,-63.95 200.99,-152.12 265.86,-264.49 64.86,-112.37 97.3,-237.99 97.3,-376.86 0,-138.86 -32.44,-264.48 -97.3,-376.86 -64.87,-112.37 -153.49,-200.53 -265.86,-264.48 -112.37,-63.95 -238.9,-95.93 -379.6,-95.93 -140.69,0 -268.14,31.98 -382.34,95.93 -114.2,63.95 -203.73,152.11 -268.6,264.48 -64.86,112.38 -97.29,238 -97.29,376.86 0,138.87 32.43,264.49 97.29,376.86 64.87,112.37 154.4,200.54 268.6,264.49 114.2,63.95 241.65,95.93 382.34,95.93z"/>
    <path id="6" class="fil0" d="M27798.15 12792.83c-144.34,0 -283.67,-22.39 -417.97,-67.15 -134.3,-44.77 -239.82,-102.78 -316.56,-174.04l101.41 -213.78c73.09,65.77 166.73,119.22 280.93,160.33 114.2,41.11 231.6,61.67 352.19,61.67 158.97,0 277.74,-26.95 356.31,-80.85 78.57,-53.91 117.85,-125.62 117.85,-215.16 0,-65.78 -21.47,-119.22 -64.41,-160.33 -42.94,-41.11 -95.93,-72.63 -158.96,-94.56 -63.04,-21.93 -152.12,-46.59 -267.23,-74 -144.35,-34.72 -260.83,-69.43 -349.45,-104.15 -88.62,-34.72 -164.45,-88.16 -227.49,-160.34 -63.04,-72.17 -94.55,-169.47 -94.55,-291.89 0,-102.32 26.95,-194.6 80.85,-276.82 53.9,-82.22 135.67,-148 245.3,-197.34 109.63,-49.33 245.76,-74 408.38,-74 113.28,0 224.74,14.62 334.37,43.85 109.64,29.24 203.74,71.26 282.31,126.08l-90.45 219.26c-80.4,-51.16 -166.28,-89.99 -257.64,-116.48 -91.35,-26.49 -180.89,-39.74 -268.59,-39.74 -155.31,0 -271.8,28.32 -349.45,84.96 -77.66,56.65 -116.49,129.73 -116.49,219.27 0,65.77 21.93,119.22 65.78,160.33 43.85,41.11 98.21,73.09 163.08,95.93 64.86,22.84 153.03,47.05 264.49,72.63 144.34,34.72 260.37,69.43 348.08,104.15 87.7,34.72 163.07,87.71 226.11,158.97 63.04,71.26 94.56,167.18 94.56,287.78 0,100.49 -27.41,192.31 -82.23,275.45 -54.81,83.14 -137.95,148.91 -249.41,197.34 -111.46,48.42 -248.5,72.63 -411.12,72.63z"/>
    <path id="7" class="fil0" d="M29689.3 10852.35c248.5,0 444.01,59.38 586.53,178.15 142.52,118.77 213.78,282.3 213.78,490.6 0,208.3 -71.26,371.83 -213.78,490.6 -142.52,118.77 -338.03,178.15 -586.53,178.15l-474.16 0 0 581.05 -274.08 0 0 -1918.55 748.24 0zm-8.22 1099.05c173.58,0 306.05,-37 397.41,-111 91.36,-74 137.04,-180.43 137.04,-319.3 0,-138.87 -45.68,-245.3 -137.04,-319.3 -91.36,-74 -223.83,-111 -397.41,-111l-465.94 0 0 860.6 465.94 0z"/>
    <polygon id="8" class="fil0" points="30892.5,10852.35 31166.58,10852.35 31166.58,12770.9 30892.5,12770.9 "/>
    <polygon id="9" class="fil0" points="32123.11,11090.8 31465.32,11090.8 31465.32,10852.35 33052.24,10852.35 33052.24,11090.8 32394.45,11090.8 32394.45,12770.9 32123.11,12770.9 "/>
    <path id="10" class="fil0" d="M34477.46 12291.26l-1019.58 0 -211.04 479.64 -282.3 0 868.83 -1918.55 271.34 0 871.57 1918.55 -287.78 0 -211.04 -479.64zm-95.93 -219.26l-413.86 -940.09 -413.86 940.09 827.72 0z"/>
    <polygon id="11" class="fil0" points="35261.32,10852.35 35535.4,10852.35 35535.4,12532.45 36574.16,12532.45 36574.16,12770.9 35261.32,12770.9 "/>
    <polygon class="fil0" points="13917.59,14114.59 13917.59,14403.72 13799.3,14403.72 13799.3,14112.2 13467.16,13567.39 13595,13567.39 13862.63,14008.25 14131.45,13567.39 14249.73,13567.39 "/>
    <path id="1" class="fil0" d="M14553.19 14410.89c-62.92,0 -119.47,-13.94 -169.65,-41.82 -50.18,-27.88 -89.41,-66.31 -117.69,-115.29 -28.27,-48.99 -42.41,-104.54 -42.41,-166.67 0,-62.13 14.14,-117.69 42.41,-166.67 28.28,-48.99 67.51,-87.22 117.69,-114.7 50.18,-27.48 106.73,-41.22 169.65,-41.22 62.93,0 119.28,13.74 169.06,41.22 49.78,27.48 88.81,65.71 117.09,114.7 28.27,48.98 42.41,104.54 42.41,166.67 0,62.13 -14.14,117.68 -42.41,166.67 -28.28,48.98 -67.31,87.41 -117.09,115.29 -49.78,27.88 -106.13,41.82 -169.06,41.82zm0 -100.36c40.63,0 77.07,-9.36 109.32,-28.08 32.26,-18.72 57.55,-45 75.87,-78.85 18.32,-33.85 27.48,-72.68 27.48,-116.49 0,-43.81 -9.16,-82.64 -27.48,-116.49 -18.32,-33.85 -43.61,-59.94 -75.87,-78.26 -32.25,-18.32 -68.69,-27.48 -109.32,-27.48 -40.62,0 -77.06,9.16 -109.32,27.48 -32.26,18.32 -57.74,44.41 -76.46,78.26 -18.72,33.85 -28.08,72.68 -28.08,116.49 0,43.81 9.36,82.64 28.08,116.49 18.72,33.85 44.2,60.13 76.46,78.85 32.26,18.72 68.7,28.08 109.32,28.08z"/>
    <path id="2" class="fil0" d="M15630.86 13770.5l0 633.22 -108.72 0 0 -95.58c-23.1,32.66 -53.56,57.95 -91.4,75.87 -37.83,17.92 -79.05,26.88 -123.66,26.88 -84.43,0 -150.93,-23.3 -199.52,-69.89 -48.59,-46.6 -72.88,-115.3 -72.88,-206.1l0 -364.4 114.7 0 0 351.26c0,61.33 14.73,107.72 44.2,139.19 29.47,31.46 71.69,47.19 126.65,47.19 60.53,0 108.32,-18.32 143.37,-54.96 35.04,-36.64 52.57,-88.41 52.57,-155.32l0 -327.36 114.69 0z"/>
    <path id="3" class="fil0" d="M15959.42 13876.83c19.91,-36.64 49.38,-64.52 88.41,-83.63 39.03,-19.12 86.42,-28.68 142.18,-28.68l0 111.12c-6.37,-0.8 -15.13,-1.2 -26.28,-1.2 -62.13,0 -110.92,18.52 -146.36,55.56 -35.45,37.04 -53.17,89.8 -53.17,158.3l0 315.42 -114.7 0 0 -633.22 109.92 0 0 106.33z"/>
    <polygon id="4" class="fil0" points="17396.72,13567.39 17396.72,14403.72 17277.24,14403.72 17277.24,14030.95 16796.95,14030.95 16796.95,14403.72 16677.47,14403.72 16677.47,13567.39 16796.95,13567.39 16796.95,13927.01 17277.24,13927.01 17277.24,13567.39 "/>
    <path id="5" class="fil0" d="M18203.18 14090.69c0,8.76 -0.79,20.31 -2.39,34.65l-513.74 0c7.17,55.76 31.66,100.56 73.47,134.41 41.82,33.85 93.79,50.78 155.92,50.78 75.67,0 136.6,-25.49 182.8,-76.47l63.32 74.08c-28.67,33.45 -64.32,58.94 -106.93,76.46 -42.61,17.53 -90.2,26.29 -142.77,26.29 -66.91,0 -126.25,-13.74 -178.02,-41.22 -51.78,-27.48 -91.8,-65.91 -120.08,-115.3 -28.27,-49.38 -42.41,-105.13 -42.41,-167.26 0,-61.33 13.74,-116.69 41.22,-166.07 27.48,-49.39 65.31,-87.82 113.5,-115.3 48.19,-27.48 102.55,-41.22 163.09,-41.22 60.53,0 114.49,13.74 161.89,41.22 47.39,27.48 84.43,65.91 111.11,115.3 26.68,49.38 40.02,105.93 40.02,169.65zm-313.02 -229.39c-54.96,0 -100.96,16.73 -138,50.18 -37.04,33.45 -58.74,77.26 -65.11,131.42l406.22 0c-6.38,-53.36 -28.08,-96.97 -65.12,-130.82 -37.04,-33.86 -83.03,-50.78 -137.99,-50.78z"/>
    <path id="6" class="fil0" d="M18574.75 13764.52c87.62,0 154.72,21.51 201.32,64.52 46.59,43.01 69.89,107.13 69.89,192.36l0 382.32 -108.72 0 0 -83.63c-19.12,29.47 -46.4,51.97 -81.84,67.5 -35.45,15.53 -77.46,23.3 -126.05,23.3 -70.89,0 -127.64,-17.13 -170.25,-51.38 -42.62,-34.25 -63.92,-79.25 -63.92,-135 0,-55.76 20.31,-100.56 60.93,-134.41 40.62,-33.86 105.14,-50.78 193.55,-50.78l181.61 0 0 -22.7c0,-49.39 -14.34,-87.22 -43.02,-113.5 -28.67,-26.29 -70.89,-39.43 -126.64,-39.43 -37.44,0 -74.08,6.17 -109.92,18.52 -35.84,12.34 -66.11,28.87 -90.8,49.58l-47.79 -86.02c32.66,-26.29 71.69,-46.4 117.09,-60.34 45.4,-13.94 93.59,-20.91 144.56,-20.91zm-26.28 557.96c43.8,0 81.64,-9.76 113.5,-29.28 31.86,-19.51 54.96,-47.19 69.3,-83.03l0 -88.41 -176.83 0c-97.17,0 -145.76,32.65 -145.76,97.97 0,31.86 12.35,56.95 37.04,75.27 24.69,18.32 58.94,27.48 102.75,27.48z"/>
    <polygon id="7" class="fil0" points="19058.63,13517.21 19173.33,13517.21 19173.33,14403.72 19058.63,14403.72 "/>
    <path id="8" class="fil0" d="M19763.54 14366.68c-16.72,14.34 -37.43,25.29 -62.13,32.86 -24.69,7.57 -50.18,11.35 -76.46,11.35 -63.72,0 -113.1,-17.13 -148.15,-51.38 -35.05,-34.25 -52.57,-83.23 -52.57,-146.95l0 -347.68 -107.53 0 0 -94.38 107.53 0 0 -138.59 114.7 0 0 138.59 181.6 0 0 94.38 -181.6 0 0 342.9c0,34.25 8.56,60.53 25.68,78.85 17.13,18.32 41.62,27.48 73.48,27.48 35.05,0 64.92,-9.95 89.61,-29.87l35.84 82.44z"/>
    <path id="9" class="fil0" d="M20240.25 13764.52c80.45,0 144.37,23.3 191.76,69.9 47.39,46.59 71.09,114.89 71.09,204.9l0 364.4 -114.7 0 0 -351.26c0,-61.33 -14.73,-107.53 -44.21,-138.59 -29.47,-31.07 -71.68,-46.6 -126.64,-46.6 -62.13,0 -111.11,18.12 -146.96,54.36 -35.84,36.25 -53.76,88.22 -53.76,155.92l0 326.17 -114.7 0 0 -886.51 114.7 0 0 342.89c23.9,-30.26 55.16,-53.76 93.79,-70.49 38.63,-16.72 81.84,-25.09 129.63,-25.09z"/>
    <path id="10" class="fil0" d="M20744.44 14247.21c22.3,0 40.82,7.76 55.55,23.29 14.74,15.54 22.11,34.85 22.11,57.95 0,11.95 -1.4,23.5 -4.18,34.65 -2.79,11.15 -8.17,28.27 -16.13,51.37l-56.16 166.07 -75.27 0 44.21 -178.01c-15.14,-5.58 -27.28,-14.94 -36.44,-28.08 -9.16,-13.14 -13.74,-28.48 -13.74,-46 0,-23.9 7.57,-43.41 22.7,-58.54 15.13,-15.14 34.25,-22.7 57.35,-22.7z"/>
    <path id="11" class="fil0" d="M21702.63 14413.28c-84.43,0 -160.49,-18.52 -228.2,-55.56 -67.7,-37.04 -120.87,-88.21 -159.5,-153.52 -38.63,-65.32 -57.94,-138.2 -57.94,-218.65 0,-80.44 19.31,-153.32 57.94,-218.64 38.63,-65.31 91.8,-116.49 159.5,-153.52 67.71,-37.04 143.77,-55.56 228.2,-55.56 83.64,0 159.31,18.52 227.01,55.56 67.7,37.03 120.67,88.01 158.9,152.93 38.23,64.91 57.35,137.99 57.35,219.23 0,81.25 -19.12,154.33 -57.35,219.24 -38.23,64.92 -91.2,115.89 -158.9,152.93 -67.7,37.04 -143.37,55.56 -227.01,55.56zm0 -106.34c61.33,0 116.49,-13.93 165.48,-41.81 48.98,-27.88 87.61,-66.31 115.89,-115.3 28.28,-48.98 42.41,-103.74 42.41,-164.28 0,-60.53 -14.13,-115.29 -42.41,-164.28 -28.28,-48.98 -66.91,-87.41 -115.89,-115.29 -48.99,-27.88 -104.15,-41.82 -165.48,-41.82 -61.33,0 -116.88,13.94 -166.67,41.82 -49.78,27.88 -88.81,66.31 -117.08,115.29 -28.28,48.99 -42.42,103.75 -42.42,164.28 0,60.54 14.14,115.3 42.42,164.28 28.27,48.99 67.3,87.42 117.08,115.3 49.79,27.88 105.34,41.81 166.67,41.81z"/>
    <path id="12" class="fil0" d="M22902.17 13770.5l0 633.22 -108.72 0 0 -95.58c-23.1,32.66 -53.56,57.95 -91.4,75.87 -37.83,17.92 -79.05,26.88 -123.66,26.88 -84.43,0 -150.93,-23.3 -199.52,-69.89 -48.59,-46.6 -72.88,-115.3 -72.88,-206.1l0 -364.4 114.7 0 0 351.26c0,61.33 14.73,107.72 44.2,139.19 29.47,31.46 71.69,47.19 126.65,47.19 60.53,0 108.32,-18.32 143.37,-54.96 35.04,-36.64 52.57,-88.41 52.57,-155.32l0 -327.36 114.69 0z"/>
    <path id="13" class="fil0" d="M23230.73 13876.83c19.91,-36.64 49.38,-64.52 88.41,-83.63 39.03,-19.12 86.42,-28.68 142.18,-28.68l0 111.12c-6.37,-0.8 -15.13,-1.2 -26.28,-1.2 -62.13,0 -110.92,18.52 -146.36,55.56 -35.45,37.04 -53.17,89.8 -53.17,158.3l0 315.42 -114.7 0 0 -633.22 109.92 0 0 106.33z"/>
    <polygon id="14" class="fil0" points="24724.18,14403.72 24722.98,13794.39 24420.71,14302.17 24365.75,14302.17 24063.48,13797.98 24063.48,14403.72 23948.78,14403.72 23948.78,13567.39 24046.75,13567.39 24395.62,14155.21 24739.71,13567.39 24837.68,13567.39 24838.88,14403.72 "/>
    <path id="15" class="fil0" d="M25073.05 13770.5l114.7 0 0 633.22 -114.7 0 0 -633.22zm57.35 -121.87c-22.3,0 -40.82,-7.17 -55.55,-21.5 -14.74,-14.34 -22.11,-31.86 -22.11,-52.57 0,-20.71 7.37,-38.43 22.11,-53.17 14.73,-14.74 33.25,-22.1 55.55,-22.1 22.3,0 40.82,6.97 55.56,20.9 14.73,13.94 22.1,31.27 22.1,51.98 0,21.5 -7.37,39.62 -22.1,54.36 -14.74,14.73 -33.26,22.1 -55.56,22.1z"/>
    <path id="16" class="fil0" d="M25588 14410.89c-51.78,0 -101.56,-6.97 -149.35,-20.91 -47.79,-13.94 -85.22,-31.66 -112.31,-53.17l47.79 -90.8c27.88,19.91 61.73,35.84 101.56,47.79 39.82,11.95 80.05,17.92 120.67,17.92 100.36,0 150.54,-28.67 150.54,-86.02 0,-19.12 -6.77,-34.25 -20.31,-45.4 -13.54,-11.15 -30.47,-19.32 -50.78,-24.49 -20.31,-5.18 -49.18,-10.95 -86.62,-17.33 -50.97,-7.96 -92.59,-17.12 -124.85,-27.48 -32.26,-10.35 -59.94,-27.87 -83.04,-52.57 -23.1,-24.69 -34.64,-59.34 -34.64,-103.94 0,-57.35 23.89,-103.35 71.68,-137.99 47.79,-34.65 111.91,-51.98 192.36,-51.98 42.21,0 84.43,5.18 126.64,15.54 42.22,10.35 76.86,24.29 103.95,41.81l-48.99 90.8c-51.77,-33.45 -112.71,-50.18 -182.8,-50.18 -48.58,0 -85.62,7.97 -111.11,23.9 -25.49,15.93 -38.23,37.04 -38.23,63.32 0,20.71 7.17,37.04 21.5,48.99 14.34,11.94 32.06,20.71 53.17,26.28 21.11,5.58 50.78,11.95 89.01,19.12 50.98,8.76 92.2,18.12 123.66,28.07 31.46,9.96 58.34,26.89 80.64,50.78 22.31,23.9 33.46,57.35 33.46,100.36 0,57.35 -24.5,102.95 -73.48,136.8 -48.99,33.85 -115.69,50.78 -200.12,50.78z"/>
    <path id="17" class="fil0" d="M26186.57 14410.89c-51.78,0 -101.56,-6.97 -149.35,-20.91 -47.79,-13.94 -85.22,-31.66 -112.31,-53.17l47.79 -90.8c27.88,19.91 61.73,35.84 101.56,47.79 39.82,11.95 80.05,17.92 120.67,17.92 100.36,0 150.54,-28.67 150.54,-86.02 0,-19.12 -6.77,-34.25 -20.31,-45.4 -13.54,-11.15 -30.47,-19.32 -50.78,-24.49 -20.31,-5.18 -49.18,-10.95 -86.62,-17.33 -50.97,-7.96 -92.59,-17.12 -124.85,-27.48 -32.26,-10.35 -59.94,-27.87 -83.04,-52.57 -23.1,-24.69 -34.64,-59.34 -34.64,-103.94 0,-57.35 23.89,-103.35 71.68,-137.99 47.79,-34.65 111.91,-51.98 192.36,-51.98 42.21,0 84.43,5.18 126.64,15.54 42.22,10.35 76.86,24.29 103.95,41.81l-48.99 90.8c-51.77,-33.45 -112.71,-50.18 -182.8,-50.18 -48.58,0 -85.62,7.97 -111.11,23.9 -25.49,15.93 -38.23,37.04 -38.23,63.32 0,20.71 7.17,37.04 21.5,48.99 14.34,11.94 32.06,20.71 53.17,26.28 21.11,5.58 50.78,11.95 89.01,19.12 50.98,8.76 92.2,18.12 123.66,28.07 31.46,9.96 58.34,26.89 80.64,50.78 22.31,23.9 33.46,57.35 33.46,100.36 0,57.35 -24.5,102.95 -73.48,136.8 -48.99,33.85 -115.69,50.78 -200.12,50.78z"/>
    <path id="18" class="fil0" d="M26603.53 13770.5l114.7 0 0 633.22 -114.7 0 0 -633.22zm57.35 -121.87c-22.3,0 -40.82,-7.17 -55.55,-21.5 -14.74,-14.34 -22.11,-31.86 -22.11,-52.57 0,-20.71 7.37,-38.43 22.11,-53.17 14.73,-14.74 33.25,-22.1 55.55,-22.1 22.3,0 40.82,6.97 55.56,20.9 14.73,13.94 22.1,31.27 22.1,51.98 0,21.5 -7.37,39.62 -22.1,54.36 -14.74,14.73 -33.26,22.1 -55.56,22.1z"/>
    <path id="19" class="fil0" d="M27208.08 14410.89c-62.92,0 -119.47,-13.94 -169.65,-41.82 -50.18,-27.88 -89.41,-66.31 -117.69,-115.29 -28.27,-48.99 -42.41,-104.54 -42.41,-166.67 0,-62.13 14.14,-117.69 42.41,-166.67 28.28,-48.99 67.51,-87.22 117.69,-114.7 50.18,-27.48 106.73,-41.22 169.65,-41.22 62.93,0 119.28,13.74 169.06,41.22 49.78,27.48 88.81,65.71 117.09,114.7 28.27,48.98 42.41,104.54 42.41,166.67 0,62.13 -14.14,117.68 -42.41,166.67 -28.28,48.98 -67.31,87.41 -117.09,115.29 -49.78,27.88 -106.13,41.82 -169.06,41.82zm0 -100.36c40.63,0 77.07,-9.36 109.32,-28.08 32.26,-18.72 57.55,-45 75.87,-78.85 18.32,-33.85 27.48,-72.68 27.48,-116.49 0,-43.81 -9.16,-82.64 -27.48,-116.49 -18.32,-33.85 -43.61,-59.94 -75.87,-78.26 -32.25,-18.32 -68.69,-27.48 -109.32,-27.48 -40.62,0 -77.06,9.16 -109.32,27.48 -32.26,18.32 -57.74,44.41 -76.46,78.26 -18.72,33.85 -28.08,72.68 -28.08,116.49 0,43.81 9.36,82.64 28.08,116.49 18.72,33.85 44.2,60.13 76.46,78.85 32.26,18.72 68.7,28.08 109.32,28.08z"/>
    <path id="20" class="fil0" d="M28033.66 13764.52c80.45,0 144.37,23.3 191.76,69.9 47.39,46.59 71.09,114.89 71.09,204.9l0 364.4 -114.7 0 0 -351.26c0,-61.33 -14.73,-107.53 -44.21,-138.59 -29.47,-31.07 -71.68,-46.6 -126.64,-46.6 -62.13,0 -111.11,18.12 -146.96,54.36 -35.84,36.25 -53.76,88.22 -53.76,155.92l0 326.17 -114.7 0 0 -633.22 109.92 0 0 95.58c23.1,-32.66 54.36,-57.75 93.79,-75.27 39.43,-17.53 84.23,-26.29 134.41,-26.29z"/>
   </g>
   <g>
    <polygon class="fil0" points="18569.72,11212.76 17955.79,11212.76 17955.79,10850.97 19627.67,10850.97 19627.67,11212.76 19013.74,11212.76 19013.74,12137.32 18569.72,12137.32 "/>
    <rect class="fil1" x="18569.87" y="12326.88" width="444.03" height="444.03"/>
   </g>
   <rect class="fil1" x="10963.51" y="12284.66" width="822.48" height="822.48" rx="13" ry="65.01"/>
   <rect class="fil1" x="8361.32" y="14890.95" width="822.48" height="822.48" rx="13" ry="65.01"/>
   <rect class="fil1" x="5759.14" y="12284.2" width="822.48" height="822.48" rx="13" ry="65.01"/>
   <rect class="fil1" x="8361.32" y="9686.57" width="822.48" height="822.48" rx="13" ry="65.01"/>
   <g>
    <path class="fil2 str0" d="M8772.56 11716.76c540.5,0 978.68,438.17 978.68,978.68 0,540.5 -438.18,978.68 -978.68,978.68 -540.51,0 -978.68,-438.18 -978.68,-978.68 0,-540.51 438.17,-978.68 978.68,-978.68z"/>
   </g>
   <g>
    <path class="fil2 str1" d="M8772.56 11377.7c727.76,0 1317.74,589.98 1317.74,1317.74 0,727.76 -589.98,1317.74 -1317.74,1317.74 -727.76,0 -1317.74,-589.98 -1317.74,-1317.74 0,-727.76 589.98,-1317.74 1317.74,-1317.74z"/>
   </g>
   <g>
    <path class="fil2 str2" d="M8772.55 11037.04c915.9,0 1658.39,742.49 1658.39,1658.39 0,915.89 -742.49,1658.39 -1658.39,1658.39 -915.89,0 -1658.39,-742.5 -1658.39,-1658.39 0,-915.9 742.5,-1658.39 1658.39,-1658.39z"/>
   </g>
   <g>
    <path class="fil2 str3" d="M8426.34 10797.16l692.44 0c35.78,0 65.01,29.2 65.01,65.07l0 1421.98 1421.97 0c35.89,0 65.08,29.23 65.08,65.01l0 692.44c0,35.76 -29.19,65.01 -65.08,65.01l-1421.97 0 0 1421.97c0,35.89 -29.23,65.08 -65.01,65.08l-692.44 0c-35.76,0 -65.01,-29.19 -65.01,-65.08l0 -1421.97 -1421.98 0c-35.87,0 -65.07,-29.25 -65.07,-65.01l0 -692.44c0,-35.78 29.2,-65.01 65.07,-65.01l1421.98 0 0 -1421.98c0,-35.87 29.25,-65.07 65.01,-65.07z"/>
    <path id="1" class="fil3" d="M8426.34 10797.16l692.44 0c35.78,0 65.01,29.2 65.01,65.07l0 1421.98 1421.97 0c35.89,0 65.08,29.23 65.08,65.01l0 692.44c0,35.76 -29.19,65.01 -65.08,65.01l-1421.97 0 0 1421.97c0,35.89 -29.23,65.08 -65.01,65.08l-692.44 0c-35.76,0 -65.01,-29.19 -65.01,-65.08l0 -1421.97 -1421.98 0c-35.87,0 -65.07,-29.25 -65.07,-65.01l0 -692.44c0,-35.78 29.2,-65.01 65.07,-65.01l1421.98 0 0 -1421.98c0,-35.87 29.25,-65.07 65.01,-65.07z"/>
   </g>
  </g>
 </g>
</svg>
